<svg xmlns="http://www.w3.org/2000/svg" viewBox="0 0 1200 630" fill="none">
  <rect width="1200" height="630" fill="#0a0a0a"/>
  <path stroke="#252525" d="M0 105h1200M0 210h1200M0 315h1200M0 420h1200M0 525h1200M120 0v630M240 0v630M360 0v630M480 0v630M600 0v630M720 0v630M840 0v630M960 0v630M1080 0v630"/>
  <rect x="120" y="189" width="240" height="252" rx="18" stroke="#e8e8e8" stroke-width="3"/>
  <path stroke="#777" stroke-width="3" d="M160 246h160M160 286h112M160 362h140M160 402h88"/>
  <circle cx="160" cy="326" r="8" fill="#a1a1aa"/>
  <path stroke="#a1a1aa" stroke-width="4" d="M360 315h128M488 315l-18-12M488 315l-18 12"/>
  <rect x="520" y="189" width="240" height="252" rx="18" stroke="#e8e8e8" stroke-width="3"/>
  <path stroke="#777" stroke-width="3" d="M560 246h160M560 286h128M560 362h130M560 402h96"/>
  <circle cx="560" cy="326" r="8" fill="#a1a1aa"/>
  <path stroke="#a1a1aa" stroke-width="4" d="M760 315h128M888 315l-18-12M888 315l-18 12"/>
  <rect x="920" y="189" width="160" height="252" rx="18" stroke="#e8e8e8" stroke-width="3"/>
  <path stroke="#777" stroke-width="3" d="M960 246h80M960 286h64M960 362h80M960 402h48"/>
  <circle cx="960" cy="326" r="8" fill="#a1a1aa"/>
</svg>
